<?xml version="1.0" standalone="no"?>
<!DOCTYPE svg PUBLIC "-//W3C//DTD SVG 20010904//EN"
 "http://www.w3.org/TR/2001/REC-SVG-20010904/DTD/svg10.dtd">
<svg version="1.0" xmlns="http://www.w3.org/2000/svg"
 width="260.000000pt" height="260.000000pt" viewBox="0 0 260.000000 260.000000"
 preserveAspectRatio="xMidYMid meet">
<metadata>
Created by potrace 1.14, written by Peter Selinger 2001-2017
</metadata>
<g transform="translate(0.000000,260.000000) scale(0.100000,-0.100000)"
fill="#000000" stroke="none">
<path d="M1916 2412 c-27 -97 -56 -198 -63 -224 l-13 -46 -113 -35 c-61 -19
-158 -50 -214 -67 -57 -18 -103 -35 -103 -38 0 -4 37 -18 83 -32 200 -59 340
-108 347 -121 4 -8 34 -110 66 -226 33 -117 62 -213 65 -213 3 0 25 66 48 148
63 215 81 275 90 292 4 8 99 43 214 80 113 36 208 67 211 70 5 6 -63 29 -306
105 l-117 37 -26 86 c-15 48 -30 98 -35 112 -5 14 -23 76 -41 138 -17 61 -34
112 -38 112 -3 0 -28 -80 -55 -178z m121 -244 c34 -15 59 -42 83 -89 41 -79
-3 -197 -86 -230 -137 -53 -264 84 -209 227 33 86 130 128 212 92z"/>
<path d="M801 2390 c-7 -25 -30 -106 -52 -181 -22 -75 -41 -145 -44 -155 -20
-99 -123 -428 -135 -435 -19 -9 -42 -19 -265 -114 -99 -42 -198 -84 -220 -95
-40 -18 -40 -18 -15 -28 14 -6 135 -58 270 -115 l245 -105 102 -364 c126 -450
124 -441 128 -436 3 3 177 654 203 758 10 44 -9 34 347 180 110 45 204 85 208
89 4 4 -115 58 -265 120 -150 62 -274 114 -276 116 -3 3 -19 62 -126 465 -42
157 -80 299 -85 315 l-8 30 -12 -45z"/>
<path d="M1702 795 c-37 -126 -63 -220 -66 -235 -1 -10 -55 -33 -154 -66 -84
-28 -154 -53 -157 -56 -3 -2 65 -26 150 -53 l155 -48 10 -36 c43 -158 80 -285
83 -288 4 -3 59 182 72 241 19 83 13 79 180 131 85 27 153 51 150 53 -2 2 -72
27 -156 55 l-152 52 -42 145 c-23 80 -44 152 -47 160 -3 8 -14 -16 -26 -55z
m90 -249 c29 -19 58 -72 58 -105 0 -66 -62 -131 -125 -131 -86 0 -154 110
-112 182 41 73 116 95 179 54z"/>
</g>
</svg>
